<?xml version="1.0" encoding="UTF-8"?>
<svg version="1.1" viewBox="0 0 1408 1072" width="352" height="268" xmlns="http://www.w3.org/2000/svg">
<path transform="translate(0)" d="m0 0h1408v1072h-1408z" fill="#F9F9F9"/>
<path transform="translate(83,54)" d="m0 0h298l1 5-1 270-329 1-2 1 2 2 325 1 4 1v363h-331l2 3 329 2v294h-334v-942z" fill="#F9F9F9"/>
<path transform="translate(0)" d="m0 0h1408v1072h-1408zm44 49-3 1v951l4 2h1305l16-1 1-5v-291l5-1-1-4h-4v-651l-1-1z" fill="#F9F9F9"/>
<path transform="translate(715,334)" d="m0 0h322l4 1v365h-325l-1-1z" fill="#F9F9F9"/>
<path transform="translate(1047,334)" d="m0 0h313l1 2v365h-300l-14-1z" fill="#F9F9F9"/>
<path transform="translate(715,704)" d="m0 0 259 1 67 1v291h-327v-62z" fill="#F9F9F9"/>
<path transform="translate(387,703)" d="m0 0h92l230 1v293h-323v-62z" fill="#F9F9F9"/>
<path transform="translate(1047,705)" d="m0 0 292 1h19l3 2v288l-1 1h-314v-44z" fill="#F9F9F9"/>
<path transform="translate(716,54)" d="m0 0h325l1 5-1 270-325 1-2-1 1-274z" fill="#F9F9F9"/>
<path transform="translate(388,54)" d="m0 0h321l1 5-1 270-321 1-2-1 1-274z" fill="#F9F9F9"/>
<path transform="translate(1048,54)" d="m0 0h309l4 1v183l-1 91-312 1-2-1 1-274z" fill="#F9F9F9"/>
<path transform="translate(44,49)" d="m0 0h1322l1 4v648l5 1-1 4h-4v295l-1 1-16 1h-1305l-4-2v-951zm39 5-36 1v942h334v-294l-329-2-2-3h331v-363l-4-1-325-1-2-2 4-1 327-1 1-274-2-1zm305 0-1 1-1 274 4 1 319-1 1-274-2-1zm328 0-1 1-1 274 4 1 323-1 1-274-2-1zm332 0-1 1-1 274 4 1 310-1 1-91v-183l-9-1zm-661 280v364l269 1h53v-364l-4-1zm328 0v365l3 1h323v-365l-4-1zm332 0v366l14 1h300v-366l-4-1zm-660 369-1 232v62h323v-293l-262-1zm328 1-1 231v62h327v-291l-67-1zm332 1-1 248v44h314l1-1v-289l-3-1h-39z" fill="#C9C9C9"/>
<path transform="translate(547,481)" d="m0 0h7l1 17v42h11l2 1-1 5-3 2h-9v20h-11v-13l1-7h-42l1-7 6-11 11-16 15-22 7-9z" fill="#C9C9C9"/>
<path transform="translate(855,482)" d="m0 0h57l1 3-5 12-11 19-8 17-5 17-2 17-1 1h-9l-1-5 4-19 6-18 10-19 10-15v-1h-46z" fill="#C9C9C9"/>
<path transform="translate(543,496)" d="m0 0h1v44l-30 1v-3l11-16 17-25z" fill="#F9F9F9"/>
</svg>
